{"asset":{"generator":"Khronos glTF Blender I/O v3.2.43","version":"2.0"},"scene":0,"scenes":[{"name":"Scene","nodes":[0]}],"nodes":[{"mesh":0,"name":"d20"}],"materials":[{"doubleSided":true,"name":"d20 preferred","normalTexture":{"index":0},"pbrMetallicRoughness":{"baseColorTexture":{"index":1},"metallicFactor":0,"roughnessFactor":0.5},"extensions":{"MSFT_lod":{"ids":[1]}},"extras":{"MSFT_screencoverage":[0,0]}},{"doubleSided":true,"name":"d20 preview","pbrMetallicRoughness":{"baseColorTexture":{"index":2},"metallicFactor":0,"roughnessFactor":0.5}}],"meshes":[{"name":"d20","primitives":[{"attributes":{"POSITION":0,"NORMAL":1,"TEXCOORD_0":2},"indices":3,"material":0}]}],"textures":[{"sampler":0,"extensions":{"EXT_texture_webp":{"source":0}}},{"sampler":0,"extensions":{"EXT_texture_avif":{"source":1},"EXT_texture_webp":{"source":2}}},{"sampler":0,"extensions":{"EXT_texture_webp":{"source":2}}}],"images":[{"mimeType":"image/webp","name":"d20 normal","uri":"d20_normal.webp"},{"mimeType":"image/avif","name":"d20 preferred","uri":"d20_diffuse.avif"},{"mimeType":"image/webp","name":"d20 preview","uri":"d20_preview.webp"}],"accessors":[{"bufferView":0,"componentType":5126,"count":60,"max":[0.8944249749183655,1,0.8506399989128113],"min":[-0.8944249749183655,-1,-0.8506399989128113],"type":"VEC3"},{"bufferView":1,"componentType":5126,"count":60,"type":"VEC3"},{"bufferView":2,"componentType":5126,"count":60,"type":"VEC2"},{"bufferView":3,"componentType":5123,"count":60,"type":"SCALAR"}],"bufferViews":[{"buffer":0,"byteLength":720,"byteOffset":0},{"buffer":0,"byteLength":720,"byteOffset":720},{"buffer":0,"byteLength":480,"byteOffset":1440},{"buffer":0,"byteLength":120,"byteOffset":1920}],"samplers":[{"magFilter":9729,"minFilter":9987}],"buffers":[{"byteLength":2040,"uri":"d20.bin"}],"extensionsUsed":["EXT_texture_avif","EXT_texture_webp","MSFT_lod"],"extensionsRequired":["EXT_texture_webp"]}