{"asset":{"generator":"Khronos glTF Blender I/O v3.2.43","version":"2.0"},"scene":0,"scenes":[{"name":"Scene","nodes":[0]}],"nodes":[{"mesh":0,"name":"Dice"}],"materials":[{"doubleSided":true,"name":"die preferred","normalTexture":{"index":0,"texCoord":0},"pbrMetallicRoughness":{"baseColorTexture":{"index":1,"texCoord":0},"metallicFactor":0,"roughnessFactor":0.4,"baseColorFactor":[1,1,1,1]},"emissiveFactor":[0,0,0],"alphaMode":"OPAQUE","extensions":{"MSFT_lod":{"ids":[1]}},"extras":{"MSFT_screencoverage":[0,0]}},{"doubleSided":true,"name":"die preview","pbrMetallicRoughness":{"baseColorTexture":{"index":2,"texCoord":0},"metallicFactor":0,"roughnessFactor":0.4,"baseColorFactor":[1,1,1,1]},"emissiveFactor":[0,0,0],"alphaMode":"OPAQUE"}],"meshes":[{"name":"Cube.003","primitives":[{"attributes":{"POSITION":0,"NORMAL":1,"TEXCOORD_0":2},"indices":3,"material":0,"mode":4}]}],"textures":[{"sampler":0,"source":0},{"sampler":0,"extensions":{"EXT_texture_avif":{"source":1},"EXT_texture_webp":{"source":2}}},{"sampler":0,"extensions":{"EXT_texture_webp":{"source":2}}}],"images":[{"mimeType":"image/png","name":"die normal","uri":"die_normal.png"},{"mimeType":"image/avif","name":"die preferred","uri":"die_diffuse.avif"},{"mimeType":"image/webp","name":"die preview","uri":"die_preview.webp"}],"accessors":[{"bufferView":0,"componentType":5126,"count":96,"max":[0.5,0.5,0.5],"min":[-0.5,-0.5,-0.5],"type":"VEC3","byteOffset":0},{"bufferView":1,"componentType":5126,"count":96,"type":"VEC3","byteOffset":0},{"bufferView":2,"componentType":5126,"count":96,"type":"VEC2","byteOffset":0},{"bufferView":3,"componentType":5123,"count":324,"type":"SCALAR","byteOffset":0}],"bufferViews":[{"buffer":0,"byteLength":1152,"byteOffset":0,"byteStride":12,"target":34962},{"buffer":0,"byteLength":1152,"byteOffset":1152,"byteStride":12,"target":34962},{"buffer":0,"byteLength":768,"byteOffset":2304,"byteStride":8,"target":34962},{"buffer":0,"byteLength":648,"byteOffset":3072,"target":34963}],"samplers":[{"magFilter":9729,"minFilter":9987,"wrapS":10497,"wrapT":10497}],"buffers":[{"name":"Dice_Geometry","byteLength":3720,"uri":"die.bin"}],"extensionsUsed":["EXT_texture_avif","EXT_texture_webp","MSFT_lod"],"extensionsRequired":["EXT_texture_webp"]}