{
  "asset": {
    "generator": "Khronos glTF Blender I/O v3.2.43",
    "version": "2.0"
  },
  "scene": 0,
  "scenes": [
    {
      "name": "Scene",
      "nodes": [
        0
      ]
    }
  ],
  "nodes": [
    {
      "mesh": 0,
      "name": "d8",
      "scale": [
        1.375,
        1.375,
        1.375
      ]
    }
  ],
  "materials": [
    {
      "doubleSided": true,
      "name": "d8 preferred",
      "normalTexture": {
        "index": 0
      },
      "pbrMetallicRoughness": {
        "baseColorTexture": {
          "index": 1
        },
        "metallicFactor": 0,
        "roughnessFactor": 0.5
      },
      "extensions": {
        "MSFT_lod": {
          "ids": [
            1
          ]
        }
      },
      "extras": {
        "MSFT_screencoverage": [
          0,
          0
        ]
      }
    },
    {
      "doubleSided": true,
      "name": "d8 preview",
      "pbrMetallicRoughness": {
        "baseColorTexture": {
          "index": 2
        },
        "metallicFactor": 0,
        "roughnessFactor": 0.5
      }
    }
  ],
  "meshes": [
    {
      "name": "d8",
      "primitives": [
        {
          "attributes": {
            "POSITION": 0,
            "NORMAL": 1,
            "TEXCOORD_0": 2
          },
          "indices": 3,
          "material": 0
        }
      ]
    }
  ],
  "textures": [
    {
      "sampler": 0,
      "extensions": {
        "EXT_texture_webp": {
          "source": 0
        }
      }
    },
    {
      "sampler": 0,
      "extensions": {
        "EXT_texture_avif": {
          "source": 1
        },
        "EXT_texture_webp": {
          "source": 2
        }
      }
    },
    {
      "sampler": 0,
      "extensions": {
        "EXT_texture_webp": {
          "source": 2
        }
      }
    }
  ],
  "images": [
    {
      "mimeType": "image/webp",
      "name": "d8 normal",
      "uri": "d8_normal.webp"
    },
    {
      "mimeType": "image/avif",
      "name": "d8 preferred",
      "uri": "d8_diffuse.avif"
    },
    {
      "mimeType": "image/webp",
      "name": "d8 preview",
      "uri": "d8_preview.webp"
    }
  ],
  "accessors": [
    {
      "bufferView": 0,
      "componentType": 5126,
      "count": 96,
      "max": [
        0.49319037795066833,
        0.682602047920227,
        0.49319037795066833
      ],
      "min": [
        -0.49319037795066833,
        -0.682602047920227,
        -0.49319037795066833
      ],
      "type": "VEC3"
    },
    {
      "bufferView": 1,
      "componentType": 5126,
      "count": 96,
      "type": "VEC3"
    },
    {
      "bufferView": 2,
      "componentType": 5126,
      "count": 96,
      "type": "VEC2"
    },
    {
      "bufferView": 3,
      "componentType": 5123,
      "count": 312,
      "type": "SCALAR"
    }
  ],
  "bufferViews": [
    {
      "buffer": 0,
      "byteLength": 1152,
      "byteOffset": 0
    },
    {
      "buffer": 0,
      "byteLength": 1152,
      "byteOffset": 1152
    },
    {
      "buffer": 0,
      "byteLength": 768,
      "byteOffset": 2304
    },
    {
      "buffer": 0,
      "byteLength": 624,
      "byteOffset": 3072
    }
  ],
  "samplers": [
    {
      "magFilter": 9729,
      "minFilter": 9987
    }
  ],
  "buffers": [
    {
      "byteLength": 3696,
      "uri": "d8.bin"
    }
  ],
  "extensionsUsed": [
    "EXT_texture_avif",
    "EXT_texture_webp",
    "MSFT_lod"
  ],
  "extensionsRequired": [
    "EXT_texture_webp"
  ]
}
